HIERARCHY
ROOT Hips
{
	OFFSET 0.00000 0.00000 0.00000
	CHANNELS 6 Xposition Yposition Zposition Yrotation Zrotation Xrotation 
	JOINT Lumbar
	{
		OFFSET 0 0 0
		CHANNELS 3 Zrotation Xrotation Yrotation
		JOINT Neck
		{
			OFFSET 0.00 0.2701 0.00
			CHANNELS 3 Zrotation Xrotation Yrotation
			End Site
			{
				OFFSET 0.00 0.1379 0.00
			}
		}
		JOINT RightShoulder
		{
			OFFSET 0.0119 0.2289 0.1181
			CHANNELS 3 Zrotation Xrotation Yrotation
			JOINT RightElbow
			{
				OFFSET 0.00 -0.1475 0.00
				CHANNELS 2 Zrotation Yrotation
				JOINT RightWrist
				{
					OFFSET 0.00 -0.1605 0.00
					CHANNELS 2 Zrotation Xrotation
					End Site
					{
						OFFSET 0.0040 -0.1068 0.0006
					}
				}
			}
		}
		JOINT LeftShoulder
		{
			OFFSET 0.0119 0.2289 -0.1181
			CHANNELS 3 Zrotation Xrotation Yrotation
			JOINT LeftElbow
			{
				OFFSET 0.00 -0.1475 0.00
				CHANNELS 2 Zrotation Yrotation
				JOINT LeftWrist
				{
					OFFSET 0.00 -0.1605 0.00
					CHANNELS 2 Zrotation Xrotation
					End Site
					{
						OFFSET 0.0040 -0.1068 -0.0006
					}
				}
			}
		}
	}
	JOINT RightHip
	{
		OFFSET 0.0316 -0.0424 0.0458
		CHANNELS 3 Zrotation Xrotation Yrotation
		JOINT RightKnee
		{
			OFFSET 0.00 -0.2438 0.00
			CHANNELS 1 Zrotation
			JOINT RightAnkle
			{
				OFFSET 0.00 -0.2449 0.00
				CHANNELS 3 Zrotation Xrotation Yrotation
				End Site
				{
					OFFSET 0.1237 -0.0542 0.0051
				}
			}
		}
	}
	JOINT LeftHip
	{
		OFFSET 0.0316 -0.0424 -0.0458
		CHANNELS 3 Zrotation Xrotation Yrotation
		JOINT LeftKnee
		{
			OFFSET 0.00 -0.2438 0.00
			CHANNELS 1 Zrotation
			JOINT LeftAnkle
			{
				OFFSET 0.00 -0.2449 0.00
				CHANNELS 3 Zrotation Xrotation Yrotation
				End Site
				{
					OFFSET 0.1237 -0.0542 -0.0051
				}
			}
		}
	}
}
MOTION
Frames: 30
Frame Time: 0.02
0.08716 -0.27989 -0.00663 40.74292 -20.41499 1.47274 37.94362 4.02365 4.42201 0.79979 -13.35862 -2.11774 53.05908 0.28042 31.50592 86.3616 107.2751 -38.48826 -6.17165 115.46837 6.41947 -49.37508 35.38805 -37.90018 51.3066 7.89034 30.67895 -13.00026 -1.78722 -123.86581 -5.42692 -1.42912 -2.87776 110.97036 2.11595 2.57602 -139.7818 -5.30979 1.926 3.10849
0.08928 -0.27925 -0.00639 40.60918 -20.03877 1.73013 38.35694 3.98577 4.62004 0.86278 -13.35954 -2.11774 52.17938 0.53843 31.73931 86.83761 105.76818 -37.26538 -6.03456 114.66549 7.02561 -49.5755 36.4783 -37.88088 51.22 7.89975 29.97273 -12.97447 -1.71248 -123.4371 -5.43554 -1.41174 -2.87096 110.36757 2.26244 2.23791 -139.97342 -5.31875 1.89614 3.09479
0.09141 -0.27852 -0.00629 40.42191 -19.68869 2.02724 38.8426 3.92968 4.82971 0.98825 -13.34567 -2.11774 51.12943 0.81136 32.05248 87.65906 103.32906 -35.24216 -5.82192 113.81875 7.76659 -49.81987 37.87474 -37.84508 51.12713 7.91112 29.28291 -12.97986 -1.54076 -122.97064 -5.44594 -1.39063 -2.86327 109.77479 2.45594 1.92577 -140.17078 -5.32989 1.85935 3.07807
0.09353 -0.27784 -0.00614 40.26012 -19.3243 2.30373 39.2963 3.88535 5.02699 1.07489 -13.33937 -2.11775 50.15716 1.0742 32.34019 88.34591 101.37704 -33.63706 -5.64872 112.99031 8.45914 -50.04415 39.15734 -37.81369 51.01479 7.92339 28.5808 -12.97037 -1.41989 -122.52181 -5.45499 -1.37236 -2.8565 109.17509 2.62798 1.60589 -140.36736 -5.34016 1.82584 3.06279
0.09568 -0.27711 -0.00593 40.09226 -18.96718 2.59208 39.74784 3.82704 5.25629 1.20388 -13.32915 -2.11775 49.17925 1.35329 32.58365 88.93679 99.16219 -31.81006 -5.45379 112.16581 9.10463 -50.27808 40.34196 -37.78056 50.99803 7.93059 27.89459 -12.96522 -1.26967 -122.06873 -5.46644 -1.34908 -2.84749 108.57997 2.80165 1.27145 -140.55745 -5.35 1.79193 3.04729
0.09777 -0.27646 -0.00587 39.92507 -18.60299 2.86417 40.22075 3.79323 5.41992 1.26065 -13.32338 -2.11776 48.17529 1.60088 32.93713 89.80915 97.27904 -30.25669 -5.28709 111.32292 9.87407 -50.49229 41.798 -37.76343 50.77827 7.94627 27.1815 -12.95754 -1.15802 -121.6162 -5.47329 -1.33537 -2.84292 107.98001 2.98259 0.97262 -140.76141 -5.36113 1.75722 3.03154
0.09973 -0.27607 -0.00615 39.76921 -18.20386 3.08921 40.73011 3.83166 5.41148 1.09657 -13.33759 -2.11777 47.12939 1.76127 33.58109 91.38655 96.44354 -29.59732 -5.20619 110.45412 10.99535 -50.72746 43.95114 -37.65358 50.02678 8.0059 26.38278 -12.94011 -1.17413 -121.17725 -5.46671 -1.34953 -2.85122 107.36162 3.17222 0.76438 -141.00895 -5.37596 1.72077 3.01538
0.10163 -0.27576 -0.00656 39.61661 -17.79857 3.29513 41.25871 3.89524 5.33446 0.85907 -13.35614 -2.11777 46.06611 1.88829 34.33112 93.23292 95.98815 -29.24847 -5.158 109.56834 12.22919 -50.92882 46.3602 -37.58016 49.06896 8.07097 25.55844 -12.91812 -1.23284 -120.7402 -5.45547 -1.37338 -2.86396 106.73938 3.36728 0.5909 -141.26895 -5.39162 1.68368 2.99907
0.10355 -0.27542 -0.0069 39.46514 -17.40245 3.50474 41.78185 3.94712 5.28035 0.65921 -13.37012 -2.11778 45.01845 2.02834 35.02922 94.94901 95.42235 -28.79497 -5.10193 108.67898 13.38193 -51.08404 48.63835 -37.59162 48.1844 8.11845 24.75108 -12.89477 -1.27383 -120.30055 -5.44654 -1.39247 -2.87441 106.12119 3.55964 0.4021 -141.51869 -5.4068 1.64796 2.98327
0.10551 -0.27505 -0.00727 39.30109 -16.9808 3.73661 42.2952 3.99954 5.26023 0.44297 -13.39452 -2.11779 43.93082 2.17887 35.74847 96.71293 94.56892 -28.16537 -5.01449 107.82716 14.66212 -51.48463 50.99527 -37.20257 47.37507 8.22584 23.92132 -12.8866 -1.30482 -119.86606 -5.43689 -1.41293 -2.88594 105.49301 3.75487 0.21246 -141.78783 -5.4236 1.60854 2.96589
0.10736 -0.27475 -0.00762 39.16431 -16.60992 3.91734 42.83064 4.05704 5.15452 0.2432 -13.39846 -2.1178 42.92625 2.29832 36.44453 98.43429 94.40716 -27.97971 -5.00019 106.90446 15.70652 -51.3854 53.23697 -37.62104 46.37406 8.21472 23.13238 -12.84586 -1.36765 -119.42281 -5.4276 -1.43291 -2.89633 104.88528 3.94452 0.03219 -142.01971 -5.4358 1.57541 2.95132
0.10895 -0.27459 -0.0079 39.10578 -16.38619 3.95887 43.43866 4.1226 4.81497 0.10156 -13.34487 -2.11781 42.14194 2.34944 37.07851 99.98971 96.14713 -29.00527 -5.18819 105.69554 16.02812 -49.73688 55.16293 -40.57813 44.7712 7.83009 22.45914 -12.71155 -1.51184 -118.94641 -5.4205 -1.44892 -2.90223 104.32942 4.11899 -0.12831 -142.14326 -5.44017 1.56578 2.94661
0.11042 -0.27449 -0.00814 39.07418 -16.21278 3.94991 44.06493 4.19249 4.39424 -0.0203 -13.27065 -2.11781 41.44526 2.36854 37.67995 101.48733 98.55629 -30.45787 -5.44723 104.43181 16.11417 -47.61484 56.94978 -44.29591 43.00307 7.33312 21.8286 -12.54539 -1.68641 -118.46299 -5.41391 -1.46419 -2.90686 103.79536 4.28678 -0.28111 -142.22926 -5.43422 1.55753 2.94302
0.11193 -0.27435 -0.0084 39.02798 -16.01246 3.96561 44.67171 4.26037 4.02001 -0.14803 -13.20594 -2.11782 40.71796 2.39617 38.27754 102.9992 100.61148 -31.68073 -5.66905 103.258 16.33875 -45.8315 58.75684 -47.44637 41.39443 6.91865 21.18036 -12.3967 -1.84499 -117.98847 -5.40703 -1.47999 -2.91223 103.25475 4.45683 -0.4392 -142.33403 -5.43565 1.54973 2.93924
0.11349 -0.27423 -0.00867 38.99164 -15.82844 3.97336 45.32613 4.32925 3.6029 -0.29139 -13.14071 -2.11783 39.9507 2.44833 38.95734 104.57439 102.90053 -33.07089 -5.91398 101.81722 16.44228 -43.54435 60.75706 -51.49883 39.43249 6.37678 20.52325 -12.23502 -2.01406 -117.48962 -5.40021 -1.49527 -2.91709 102.6994 4.63184 -0.58868 -142.43218 -5.44512 1.55335 2.93958
0.11492 -0.2741 -0.0089 38.94139 -15.62322 3.986 45.88581 4.3968 3.25664 -0.39664 -13.07175 -2.11783 39.2882 2.44189 39.45709 105.99671 104.8431 -34.20204 -6.12577 100.90951 16.73065 -42.17098 62.31547 -53.89652 38.15714 6.06703 19.89608 -12.09315 -2.16816 -117.0401 -5.39346 -1.51135 -2.92265 102.18053 4.79304 -0.75451 -142.53483 -5.4111 1.51343 2.92475
0.11603 -0.27397 -0.009 38.84405 -15.34075 4.02371 46.17547 4.45905 3.12667 -0.40034 -12.99628 -2.11784 38.88978 2.28427 39.46414 107.04024 105.78445 -34.58486 -6.24139 101.57736 17.67203 -43.64355 62.71172 -51.15428 38.93169 6.48243 19.33265 -12.01122 -2.2715 -116.72582 -5.3867 -1.52977 -2.93045 101.75266 4.93343 -0.96915 -142.66092 -5.4783 1.53694 2.93021
0.11701 -0.27384 -0.00906 38.7322 -15.03642 4.06816 46.3696 4.51984 3.07092 -0.36613 -12.91794 -2.11784 38.59431 2.0684 39.29129 107.92471 106.33315 -34.67967 -6.31898 102.76821 18.79189 -46.01658 62.66228 -46.78657 40.38474 7.12549 18.79963 -11.95066 -2.35878 -116.46202 -5.38002 -1.54897 -2.93899 101.36167 5.05749 -1.20029 -142.79243 -5.46901 1.49063 2.91137
0.11805 -0.2737 -0.00914 38.62835 -14.74633 4.1103 46.61021 4.58147 2.98111 -0.34978 -12.84177 -2.11784 38.25463 1.87754 39.20244 108.86198 106.97754 -34.85528 -6.40506 103.65885 19.77272 -47.83813 62.80005 -43.42191 41.45119 7.6261 18.25832 -11.88223 -2.45466 -116.17679 -5.37336 -1.56779 -2.94718 100.95664 5.17832 -1.42299 -142.92017 -5.34139 1.34494 2.85932
0.11909 -0.27357 -0.0092 38.51944 -14.43984 4.1481 46.83929 4.64233 2.89017 -0.3305 -12.76141 -2.11784 37.90823 1.6918 39.10276 109.88127 107.9817 -35.24843 -6.52945 104.80592 20.98666 -50.23159 62.99822 -38.99026 42.83392 8.28411 17.69497 -11.80558 -2.54658 -115.8846 -5.36645 -1.58671 -2.95536 100.54066 5.34264 -1.64966 -143.05207 -5.82783 1.71831 2.98319
0.12009 -0.27343 -0.0093 38.41733 -14.16164 4.19644 47.06847 4.70462 2.81985 -0.30813 -12.68914 -2.11785 37.59774 1.48187 38.98371 110.69066 108.15103 -35.12579 -6.56576 105.55088 21.76461 -51.66907 62.96611 -36.35689 43.73149 8.67393 17.18441 -11.7507 -2.64196 -115.61938 -5.3601 -1.60562 -2.96376 100.15622 5.41411 -1.8717 -143.17714 -5.05727 1.03723 2.7486
0.121 -0.27322 -0.00954 38.33712 -13.96723 4.27907 47.32987 4.76924 2.79239 -0.2902 -12.64198 -2.11785 37.37236 1.2206 38.85166 110.97601 105.96674 -33.5504 -6.35349 104.99834 21.26107 -50.1209 62.41006 -39.32205 43.03709 8.23294 16.81041 -11.75843 -2.75569 -115.4131 -5.35529 -1.62422 -2.97264 99.84774 5.21983 -2.08038 -143.28163 -0.4822 -2.92267 1.40856
0.12186 -0.27301 -0.00982 38.26424 -13.80189 4.37107 47.59302 4.83566 2.78274 -0.2699 -12.6028 -2.11785 37.17673 0.93704 38.70709 111.05274 102.98049 -31.48281 -6.05636 104.03525 20.32049 -47.60744 61.6375 -44.10274 41.84881 7.52149 16.48876 -11.78621 -2.87242 -115.23285 -5.35104 -1.64278 -2.98172 99.57007 4.93506 -2.28322 -143.37922 5.2951 -7.87856 -0.27126
0.12273 -0.2728 -0.01008 38.18811 -13.62263 4.45452 47.84958 4.90259 2.76273 -0.2483 -12.55869 -2.11786 36.96015 0.66294 38.5708 111.21435 100.45134 -29.70238 -5.80718 103.29817 19.60294 -45.6181 60.9632 -47.89745 40.94299 6.95668 16.14391 -11.79968 -2.9844 -115.0428 -5.34652 -1.66145 -2.9907 99.2795 4.70063 -2.48652 -143.48054 10.28379 -12.11512 -1.71253
0.12364 -0.27256 -0.01033 38.11099 -13.4451 4.55624 48.12703 4.96405 2.75496 -0.23528 -12.51988 -2.11786 36.77993 0.38921 38.41753 111.41235 97.51338 -27.64144 -5.51669 102.40939 18.78682 -43.29088 60.27496 -52.32582 39.81236 6.29834 15.79705 -11.83513 -3.11004 -114.84594 -5.34205 -1.67987 -2.99978 98.98533 4.42718 -2.69972 -143.57995 16.27468 -17.4433 -3.49931
0.12445 -0.27239 -0.01061 38.03806 -13.27183 4.62211 48.36292 5.03713 2.72479 -0.2045 -12.47207 -2.11786 36.528 0.11067 38.29869 111.48705 95.24703 -26.05503 -5.29312 101.73655 18.0719 -41.43689 59.56875 -55.87329 39.0282 5.76918 15.4672 -11.83017 -3.20828 -114.66878 -5.33764 -1.69867 -3.00866 98.70581 4.21313 -2.89065 -143.68111 20.49177 -20.77952 -4.66005
0.12502 -0.27243 -0.0109 37.97292 -13.09755 4.58607 48.48145 5.14363 2.62999 -0.12376 -12.39655 -2.11786 36.0852 -0.17957 38.28166 111.27281 94.98024 -25.86757 -5.27007 101.71986 17.72387 -41.02854 58.8793 -56.67112 39.28009 5.64794 15.1646 -11.70106 -3.22866 -114.53962 -5.33306 -1.7194 -3.01728 98.45645 4.19065 -3.02185 -143.79323 19.25744 -17.96118 -3.89107
0.12548 -0.27254 -0.01121 37.91211 -12.92778 4.51375 48.5589 5.26143 2.51142 -0.02567 -12.31195 -2.11787 35.56635 -0.47282 38.30003 110.94209 95.4249 -26.1797 -5.31806 101.93839 17.4942 -41.13987 58.1784 -56.50891 39.9009 5.66705 14.87858 -11.53189 -3.22161 -114.42925 -5.32856 -1.74035 -3.02563 98.22118 4.23024 -3.13066 -143.90649 16.23903 -13.17051 -2.49955
0.12598 -0.27261 -0.01152 37.85078 -12.75973 4.45835 48.65712 5.37293 2.40228 0.06323 -12.23205 -2.11787 35.07188 -0.76194 38.30058 110.66556 95.5839 -26.28832 -5.33749 102.07473 17.22388 -41.07712 57.47694 -56.705 40.37808 5.63144 14.58921 -11.386 -3.22825 -114.3099 -5.32415 -1.76061 -3.03387 97.98095 4.23789 -3.24953 -144.01629 14.21397 -9.56377 -1.47359
0.12651 -0.2727 -0.01182 37.78387 -12.57658 4.40126 48.74674 5.48948 2.29942 0.15759 -12.14975 -2.11787 34.62005 -1.06373 38.30752 110.37761 95.5704 -26.28971 -5.33969 102.09773 16.88834 -40.7338 56.79438 -57.27312 40.74175 5.55099 14.28353 -11.2195 -3.23014 -114.19287 -5.31921 -1.78336 -3.04309 97.73534 4.25784 -3.36892 -144.13828 11.48266 -4.81696 -0.12154
